<svg width="210" height="21" viewBox="0 0 210 21" fill="none" xmlns="http://www.w3.org/2000/svg">
<path d="M22.52 12.028C22.212 12.364 21.89 12.7 21.554 13.036C21.218 13.344 20.854 13.624 20.462 13.876L23.99 18.496L24.41 19.336H21.932C21.176 19.336 20.364 18.93 19.496 18.118C18.628 17.278 17.704 16.228 16.724 14.968H3.956L0.05 19.336V14.506L10.634 0.981999L19.034 12.028H22.52ZM14.414 12.028C13.798 11.272 13.154 10.432 12.482 9.508C11.838 8.556 11.194 7.73 10.55 7.03L6.56 12.028H14.414ZM47.2871 1.066C47.5111 1.066 47.7911 1.094 48.1271 1.15C48.4631 1.206 48.8131 1.276 49.1771 1.36C49.5691 1.416 49.9471 1.486 50.3111 1.57C50.6751 1.626 50.9971 1.682 51.2771 1.738V16.48L52.3271 18.58L51.4871 19H34.3091C33.9451 19 33.5111 18.986 33.0071 18.958C32.5311 18.902 32.0271 18.804 31.4951 18.664C30.9911 18.524 30.4871 18.328 29.9831 18.076C29.5071 17.824 29.0871 17.488 28.7231 17.068C28.6671 16.984 28.6251 16.858 28.5971 16.69C28.5691 16.522 28.5551 16.396 28.5551 16.312V1.318C28.7511 1.318 29.0311 1.346 29.3951 1.402C29.7591 1.458 30.1371 1.514 30.5291 1.57C30.9211 1.626 31.2991 1.696 31.6631 1.78C32.0551 1.836 32.3631 1.878 32.5871 1.906V13.96C32.5871 14.184 32.6571 14.394 32.7971 14.59C32.9371 14.786 33.1051 14.968 33.3011 15.136C33.5251 15.276 33.7491 15.388 33.9731 15.472C34.2251 15.556 34.4491 15.598 34.6451 15.598H47.2871V1.066ZM56.6877 4.72C57.3317 3.88 58.1297 3.18 59.0817 2.62C60.0337 2.06 61.0557 1.78 62.1477 1.78H70.7157C71.8077 1.78 72.8297 2.06 73.7817 2.62C74.7337 3.18 75.5317 3.88 76.1757 4.72H68.1117V20.302C68.1117 20.47 67.9857 20.596 67.7337 20.68C67.3977 20.512 67.0337 20.274 66.6417 19.966C66.2497 19.686 65.8857 19.364 65.5497 19C65.2417 18.636 64.9757 18.244 64.7517 17.824C64.5277 17.376 64.4157 16.928 64.4157 16.48V4.72H56.6877ZM80.5531 18.58L81.3931 19H97.3531C97.6891 19 98.2491 18.958 99.0331 18.874C99.8171 18.79 100.615 18.636 101.427 18.412C102.239 18.188 102.953 17.894 103.569 17.53C104.185 17.138 104.493 16.648 104.493 16.06V1.738H86.4331C86.1251 1.738 85.6911 1.822 85.1311 1.99C84.5991 2.13 84.0671 2.326 83.5351 2.578C83.0031 2.83 82.5411 3.138 82.1491 3.502C81.7851 3.866 81.6031 4.258 81.6031 4.678V16.48L80.5531 18.58ZM86.0131 15.64V5.098H100.293V13.96C100.293 14.184 100.209 14.408 100.041 14.632C99.9011 14.828 99.7191 15.01 99.4951 15.178C99.2991 15.318 99.0751 15.43 98.8231 15.514C98.5991 15.598 98.3891 15.64 98.1931 15.64H86.0131ZM125.272 8.836H110.362C110.306 8.836 110.208 8.906 110.068 9.046C109.928 9.186 109.858 9.284 109.858 9.34L109.69 11.944H119.812C120.932 11.944 121.968 11.65 122.92 11.062C123.9 10.474 124.712 9.788 125.356 9.004L125.272 8.836ZM131.255 17.74C131.115 17.88 130.961 18.076 130.793 18.328C130.625 18.552 130.541 18.776 130.541 19H144.947C145.199 19 145.577 18.958 146.081 18.874C146.613 18.79 147.131 18.65 147.635 18.454C148.167 18.258 148.629 18.02 149.021 17.74C149.413 17.46 149.609 17.11 149.609 16.69L149.567 16.48L135.455 15.64V1.78C135.399 1.78 135.189 1.752 134.825 1.696C134.489 1.612 134.055 1.542 133.523 1.486C133.019 1.402 132.613 1.36 132.305 1.36L131.255 1.318V17.74ZM154.797 1.318V16.48C154.797 16.928 154.909 17.376 155.133 17.824C155.357 18.244 155.637 18.636 155.973 19C156.309 19.364 156.673 19.686 157.065 19.966C157.457 20.274 157.821 20.512 158.157 20.68C158.409 20.596 158.535 20.47 158.535 20.302V1.822L158.325 1.78C158.101 1.752 157.835 1.71 157.527 1.654C157.247 1.598 156.939 1.556 156.603 1.528C156.267 1.472 155.931 1.43 155.595 1.402C155.287 1.346 155.021 1.318 154.797 1.318ZM164.678 3.838C164.566 3.698 164.412 3.432 164.216 3.04C164.02 2.62 163.894 2.326 163.838 2.158C163.782 1.934 163.754 1.794 163.754 1.738H168.878V9.298H174.296C175.276 9.046 176.06 8.626 176.648 8.038L183.2 1.822V6.61L177.698 12.238C178.202 12.714 178.804 13.232 179.504 13.792C180.204 14.352 180.946 14.954 181.73 15.598C182.514 16.214 183.312 16.872 184.124 17.572C184.936 18.272 185.706 19 186.434 19.756L186.224 19.798C185.58 19.798 184.95 19.742 184.334 19.63C183.746 19.546 183.214 19.448 182.738 19.336C182.262 19.252 181.87 19.154 181.562 19.042C181.282 18.958 181.142 18.916 181.142 18.916C181.002 18.916 180.554 18.678 179.798 18.202C179.042 17.726 178.202 17.18 177.278 16.564C176.354 15.92 175.444 15.29 174.548 14.674C173.652 14.058 173.008 13.61 172.616 13.33C172.392 13.162 172.28 13.078 172.28 13.078C172.168 13.022 172 12.938 171.776 12.826C171.58 12.714 171.468 12.658 171.44 12.658L168.668 13.078V18.958C168.668 19.098 168.486 19.238 168.122 19.378C167.786 19.546 167.394 19.686 166.946 19.798C166.498 19.938 166.078 20.036 165.686 20.092C165.322 20.176 165.126 20.218 165.098 20.218C165.042 20.218 164.958 20.162 164.846 20.05C164.734 19.938 164.678 19.854 164.678 19.798V3.838ZM209.629 1.78H190.897C190.841 1.78 190.743 1.85 190.603 1.99C190.463 2.13 190.393 2.228 190.393 2.284L190.225 4.888H204.589C205.093 4.888 205.583 4.804 206.059 4.636C206.563 4.468 207.039 4.244 207.487 3.964C207.935 3.684 208.341 3.376 208.705 3.04C209.097 2.676 209.433 2.312 209.713 1.948L209.629 1.78ZM209.629 15.892H190.897C190.841 15.892 190.743 15.962 190.603 16.102C190.463 16.242 190.393 16.34 190.393 16.396L190.225 19H204.169C205.317 19 206.367 18.72 207.319 18.16C208.271 17.6 209.069 16.9 209.713 16.06L209.629 15.892ZM209.629 8.836H190.897C190.841 8.836 190.743 8.906 190.603 9.046C190.463 9.186 190.393 9.284 190.393 9.34L190.225 11.944H204.169C205.289 11.944 206.325 11.65 207.277 11.062C208.257 10.474 209.069 9.788 209.713 9.004L209.629 8.836Z" fill="black"/>
</svg>
